<svg xmlns="http://www.w3.org/2000/svg" width="1600" height="900" viewBox="0 0 1600 900">
  <defs>
    <linearGradient id="g" x1="0" y1="0" x2="1" y2="1">
      <stop offset="0" stop-color="#eef2ff"/>
      <stop offset="1" stop-color="#ffffff"/>
    </linearGradient>
    <filter id="shadow" x="-20%" y="-20%" width="140%" height="140%">
      <feDropShadow dx="0" dy="10" stdDeviation="14" flood-color="#0f172a" flood-opacity="0.12"/>
    </filter>
  </defs>

  <rect x="0" y="0" width="1600" height="900" rx="28" fill="url(#g)"/>
  <g filter="url(#shadow)">
    <rect x="120" y="120" width="1360" height="660" rx="22" fill="#ffffff" stroke="rgba(15,23,42,0.12)"/>
  </g>

  <g fill="#0b0f18" font-family="Inter, system-ui, -apple-system, Segoe UI, Roboto, Helvetica, Arial" text-anchor="middle">
    <text x="800" y="310" font-size="44" font-weight="700">Teaser Figure (Placeholder)</text>
    <text x="800" y="372" font-size="20" opacity="0.75">
      Replace this SVG with your real teaser figure.
    </text>
  </g>

  <g transform="translate(240 440)">
    <rect x="0" y="0" width="520" height="260" rx="18" fill="#f8fafc" stroke="rgba(15,23,42,0.10)"/>
    <text x="260" y="86" font-family="Inter, system-ui" font-size="18" font-weight="700" text-anchor="middle" fill="#0b0f18">
      Dataset / Benchmark Overview
    </text>
    <text x="260" y="128" font-family="Inter, system-ui" font-size="14" text-anchor="middle" fill="rgba(11,15,24,0.7)">
      (use boxes/arrows to explain your pipeline)
    </text>
    <g transform="translate(70 160)">
      <rect x="0" y="0" width="120" height="54" rx="12" fill="rgba(37,99,235,0.10)" stroke="rgba(37,99,235,0.25)"/>
      <text x="60" y="34" font-family="Inter, system-ui" font-size="13" font-weight="700" text-anchor="middle" fill="#1d4ed8">Input</text>
      <rect x="150" y="0" width="120" height="54" rx="12" fill="rgba(37,99,235,0.10)" stroke="rgba(37,99,235,0.25)"/>
      <text x="210" y="34" font-family="Inter, system-ui" font-size="13" font-weight="700" text-anchor="middle" fill="#1d4ed8">Eval</text>
      <rect x="300" y="0" width="120" height="54" rx="12" fill="rgba(37,99,235,0.10)" stroke="rgba(37,99,235,0.25)"/>
      <text x="360" y="34" font-family="Inter, system-ui" font-size="13" font-weight="700" text-anchor="middle" fill="#1d4ed8">Score</text>
      <path d="M125 27 L145 27" stroke="rgba(15,23,42,0.35)" stroke-width="3" stroke-linecap="round"/>
      <path d="M275 27 L295 27" stroke="rgba(15,23,42,0.35)" stroke-width="3" stroke-linecap="round"/>
    </g>
  </g>

  <g transform="translate(840 440)">
    <rect x="0" y="0" width="520" height="260" rx="18" fill="#f8fafc" stroke="rgba(15,23,42,0.10)"/>
    <text x="260" y="86" font-family="Inter, system-ui" font-size="18" font-weight="700" text-anchor="middle" fill="#0b0f18">
      Leaderboard Snapshot
    </text>
    <text x="260" y="128" font-family="Inter, system-ui" font-size="14" text-anchor="middle" fill="rgba(11,15,24,0.7)">
      (replace with a screenshot or key results)
    </text>
    <g transform="translate(60 160)">
      <rect x="0" y="0" width="400" height="12" rx="6" fill="rgba(15,23,42,0.08)"/>
      <rect x="0" y="28" width="360" height="12" rx="6" fill="rgba(15,23,42,0.08)"/>
      <rect x="0" y="56" width="320" height="12" rx="6" fill="rgba(15,23,42,0.08)"/>
    </g>
  </g>
</svg>
